<svg xmlns="http://www.w3.org/2000/svg" width="113.4" height="113.4" viewBox="0 0 113.4 113.4"><path fill="#1B49BE" d="M96.8 43.1c-6.4-1.2-12.5 3.1-13.7 9.5 0 0 0 0 0 .1-.2 1.2-3.4 17.6-20 14.6 0 0 39.4 11.1 43.2-10.2 0-.1 0-.2.1-.3 1.1-6.4-3.2-12.5-9.6-13.7zM30.3 60.5c.2-1.3 3.4-17.7 20-14.7 0 0-39.4-11.1-43.2 10.2 0 .1 0 .2-.1.3-1.2 6.4 3.1 12.6 9.5 13.7 6.5 1.2 12.6-3 13.8-9.5zm35-29.5c.1 0 .1 0 0 0 1 .9 13.4 12 2.4 24.7 0 0 29.7-28.2 13.3-42.3-.1-.1-.1-.1-.2-.2-4.9-4.3-12.4-3.7-16.7 1.2-4.2 4.9-3.7 12.3 1.2 16.6zM47.7 82.4s-.1 0 0 0c-1-.9-13.4-12-2.4-24.7 0 0-29.7 28.2-13.3 42.3.1.1.1.1.2.2 4.9 4.3 12.4 3.7 16.7-1.2 4.2-4.9 3.7-12.3-1.2-16.6zm-7.8-47.6s.1 0 0 0c1.2-.4 17-5.8 22.7 10.1 0 0-10-39.7-30.4-32.4-.1 0-.2.1-.3.1-6.1 2.2-9.3 9-7.1 15.1 2.2 6.1 9 9.3 15.1 7.1zm34.4 43.8c-1.2.4-17 5.8-22.7-10.1 0 0 10 39.7 30.4 32.4.1 0 .2-.1.3-.1 6.1-2.2 9.3-9 7.1-15.1-2.2-6.1-8.9-9.3-15.1-7.1z"/></svg>